<svg width="90" height="90" viewBox="0 0 90 90" fill="none" xmlns="http://www.w3.org/2000/svg">
<g clip-path="url(#clip0_605_4545)">
<g filter="url(#filter0_bi_605_4545)">
<path d="M0 47.8127C0 77.7377 22.0235 90.0002 42.353 90.0002C67.1294 90.0002 84.7059 67.5002 84.7059 50.4002C84.7059 39.6002 81.3177 28.8002 60.9882 28.8002C42.9246 28.8002 38.2363 20.2734 44.5464 5.74536C45.6901 3.11213 43.8786 0.125278 41.0682 0.711724C23.8361 4.30759 0 21.3555 0 47.8127Z" fill="#626666"/>
<path d="M42.353 89.4377C32.2931 89.4377 21.8421 86.4026 13.9162 79.6989C6.00541 73.0079 0.5625 62.6231 0.5625 47.8127C0.5625 34.7656 6.43692 24.0264 14.4675 16.0893C22.505 8.14527 32.6753 3.03772 41.1831 1.26236C42.3447 1.01997 43.276 1.50523 43.8205 2.33086C44.3751 3.1717 44.5281 4.3756 44.0305 5.52127C40.8562 12.8294 40.3514 18.8362 43.1597 23.0336C45.9655 27.2273 51.9118 29.3627 60.9882 29.3627C71.0592 29.3627 76.7971 32.0358 80.0392 35.9111C83.2978 39.8062 84.1434 45.0391 84.1434 50.4002C84.1434 58.7739 79.8292 68.5402 72.4158 76.2221C65.0118 83.8943 54.5634 89.4377 42.353 89.4377Z" stroke="#1D1D1D" stroke-opacity="0.05" stroke-width="1.125"/>
<path d="M42.353 89.4377C32.2931 89.4377 21.8421 86.4026 13.9162 79.6989C6.00541 73.0079 0.5625 62.6231 0.5625 47.8127C0.5625 34.7656 6.43692 24.0264 14.4675 16.0893C22.505 8.14527 32.6753 3.03772 41.1831 1.26236C42.3447 1.01997 43.276 1.50523 43.8205 2.33086C44.3751 3.1717 44.5281 4.3756 44.0305 5.52127C40.8562 12.8294 40.3514 18.8362 43.1597 23.0336C45.9655 27.2273 51.9118 29.3627 60.9882 29.3627C71.0592 29.3627 76.7971 32.0358 80.0392 35.9111C83.2978 39.8062 84.1434 45.0391 84.1434 50.4002C84.1434 58.7739 79.8292 68.5402 72.4158 76.2221C65.0118 83.8943 54.5634 89.4377 42.353 89.4377Z" stroke="url(#paint0_linear_605_4545)" stroke-opacity="0.2" stroke-width="1.125"/>
</g>
<g filter="url(#filter1_i_605_4545)">
<path d="M74.1176 47.6468C74.1176 44.7229 71.7474 42.3526 68.8235 42.3526C65.8997 42.3526 63.5294 44.7229 63.5294 47.6468C63.5294 50.5706 65.8997 52.9409 68.8235 52.9409C71.7474 52.9409 74.1176 50.5706 74.1176 47.6468Z" fill="#EAF4F4"/>
<path d="M47.6471 74.1177C47.6471 71.1938 45.2768 68.8235 42.3529 68.8235C39.4291 68.8235 37.0588 71.1938 37.0588 74.1177C37.0588 77.0415 39.4291 79.4118 42.3529 79.4118C45.2768 79.4118 47.6471 77.0415 47.6471 74.1177Z" fill="#EAF4F4"/>
<path d="M68.8235 68.8231C68.8235 65.8993 66.4533 63.529 63.5294 63.529C60.6056 63.529 58.2353 65.8993 58.2353 68.8231C58.2353 71.747 60.6056 74.1173 63.5294 74.1173C66.4533 74.1173 68.8235 71.747 68.8235 68.8231Z" fill="#EAF4F4"/>
<path d="M26.4706 68.8231C26.4706 65.8993 24.1003 63.529 21.1765 63.529C18.2526 63.529 15.8823 65.8993 15.8823 68.8231C15.8823 71.747 18.2526 74.1173 21.1765 74.1173C24.1003 74.1173 26.4706 71.747 26.4706 68.8231Z" fill="#EAF4F4"/>
<path d="M21.1764 47.6468C21.1764 44.7229 18.8061 42.3526 15.8823 42.3526C12.9584 42.3526 10.5881 44.7229 10.5881 47.6468C10.5881 50.5706 12.9584 52.9409 15.8823 52.9409C18.8061 52.9409 21.1764 50.5706 21.1764 47.6468Z" fill="#EAF4F4"/>
<path d="M31.7647 26.4704C31.7647 23.5465 29.3944 21.1763 26.4705 21.1763C23.5467 21.1763 21.1764 23.5465 21.1764 26.4704C21.1764 29.3942 23.5467 31.7645 26.4705 31.7645C29.3944 31.7645 31.7647 29.3942 31.7647 26.4704Z" fill="#EAF4F4"/>
</g>
<path d="M57.2949 32.8098C55.3519 30.8668 52.7681 29.7969 50.0212 29.7969C49.7684 29.7969 49.5201 29.816 49.2717 29.8336L42.3169 36.7883C41.1691 37.9362 41.1691 39.7969 42.3169 40.9447L49.0571 47.6849C50.2049 48.8327 52.0656 48.8327 53.2135 47.6849L60.2799 40.6184C60.4225 37.8098 59.4363 34.9512 57.2949 32.8098Z" fill="url(#paint1_linear_605_4545)"/>
<g filter="url(#filter2_bi_605_4545)">
<path d="M87.7476 2.25309C84.7435 -0.751028 79.8552 -0.751028 76.8511 2.25309L49.2703 29.8339C49.5187 29.8163 49.7685 29.7972 50.0199 29.7972C52.7682 29.7972 53.9014 32.2134 55.8444 34.1564C57.9857 36.2977 60.4226 37.8101 60.277 40.6202L87.7476 13.1496C90.7518 10.1455 90.7518 5.2572 87.7476 2.25309Z" fill="#626666"/>
<path d="M57.2949 32.8097C55.3519 30.8667 52.7668 29.7972 50.0199 29.7972C49.7685 29.7972 49.5187 29.8163 49.2703 29.8339L42.3169 36.7882C41.1691 37.9361 41.1691 39.7968 42.3169 40.9446L49.0571 47.6848C50.2049 48.8326 52.0656 48.8326 53.2135 47.6848L60.277 40.6202C60.4196 37.8116 59.4363 34.9511 57.2949 32.8097Z" fill="#626666"/>
<path d="M87.3499 12.7519L60.8235 39.2783C60.6402 36.7774 59.6044 34.3237 57.6926 32.4119C55.7927 30.512 53.3081 29.4033 50.6473 29.2524L77.2489 2.65083C80.0333 -0.133611 84.5654 -0.133611 87.3499 2.65083C90.1343 5.43528 90.1343 9.96742 87.3499 12.7519ZM49.5194 30.3803C49.6931 30.3686 49.8566 30.3597 50.0199 30.3597C51.1954 30.3597 52.0327 30.8633 52.8417 31.6511C53.2536 32.0522 53.6456 32.5148 54.0715 33.0187L54.0849 33.0346C54.5011 33.5269 54.9469 34.0544 55.4466 34.5541C55.8781 34.9856 56.3233 35.3939 56.7474 35.7828C56.8597 35.8858 56.9706 35.9875 57.0793 36.0879C57.6051 36.5734 58.0854 37.0324 58.4921 37.5046C59.2496 38.3842 59.7203 39.2719 59.7207 40.381L52.8157 47.287C52.8157 47.287 52.8157 47.287 52.8157 47.287C51.8875 48.2152 50.383 48.2152 49.4548 47.287L42.7147 40.5469C41.7865 39.6187 41.7865 38.1142 42.7147 37.186L42.7147 37.186L49.5194 30.3803ZM53.9639 31.1889C55.0435 31.6678 56.0366 32.3469 56.8971 33.2074C57.84 34.1503 58.5456 35.2411 59.0166 36.4064C58.6481 36.0138 58.2474 35.6352 57.8424 35.2613C57.7279 35.1555 57.6131 35.0503 57.4984 34.9451C57.0766 34.5582 56.6547 34.1712 56.2421 33.7586C55.7758 33.2924 55.3557 32.7953 54.931 32.2928L54.9307 32.2924L54.928 32.2893C54.6145 31.9183 54.2962 31.5417 53.9639 31.1889Z" stroke="url(#paint2_linear_605_4545)" stroke-opacity="0.1" stroke-width="1.125"/>
</g>
<g filter="url(#filter3_i_605_4545)">
<path d="M49.946 54.7092C53.9568 50.6983 53.9568 44.1713 49.946 40.1604C48.003 38.2174 45.4192 37.1475 42.6723 37.1475C39.9239 37.1475 37.3402 38.2174 35.3972 40.1604C33.1176 42.4399 31.9448 47.9602 31.3554 52.24C34.4889 52.2606 36.5818 54.5769 39.627 55.3926C42.2726 56.101 45.819 55.3147 49.0847 55.4146C49.4051 55.1898 49.6976 54.9576 49.946 54.7092Z" fill="#EAF4F4"/>
<path d="M31.2393 58.8656C31.5156 59.1419 31.8904 59.2962 32.2784 59.2962C32.3049 59.2962 32.3313 59.2962 32.3578 59.2948C33.6703 59.2242 44.5977 58.5407 49.0847 55.4146C42.0609 55.1986 37.2108 52.2783 31.3554 52.24C30.9807 54.9708 30.841 57.2004 30.8117 57.7486C30.7881 58.1631 30.9439 58.5702 31.2393 58.8656Z" fill="#EAF4F4"/>
</g>
</g>
<defs>
<filter id="filter0_bi_605_4545" x="-22.5" y="-21.8628" width="129.706" height="134.363" filterUnits="userSpaceOnUse" color-interpolation-filters="sRGB">
<feFlood flood-opacity="0" result="BackgroundImageFix"/>
<feGaussianBlur in="BackgroundImageFix" stdDeviation="11.25"/>
<feComposite in2="SourceAlpha" operator="in" result="effect1_backgroundBlur_605_4545"/>
<feBlend mode="normal" in="SourceGraphic" in2="effect1_backgroundBlur_605_4545" result="shape"/>
<feColorMatrix in="SourceAlpha" type="matrix" values="0 0 0 0 0 0 0 0 0 0 0 0 0 0 0 0 0 0 127 0" result="hardAlpha"/>
<feOffset dy="7.5"/>
<feGaussianBlur stdDeviation="5.625"/>
<feComposite in2="hardAlpha" operator="arithmetic" k2="-1" k3="1"/>
<feColorMatrix type="matrix" values="0 0 0 0 1 0 0 0 0 1 0 0 0 0 1 0 0 0 0.15 0"/>
<feBlend mode="normal" in2="shape" result="effect2_innerShadow_605_4545"/>
</filter>
<filter id="filter1_i_605_4545" x="10.5881" y="21.1763" width="63.5295" height="65.7356" filterUnits="userSpaceOnUse" color-interpolation-filters="sRGB">
<feFlood flood-opacity="0" result="BackgroundImageFix"/>
<feBlend mode="normal" in="SourceGraphic" in2="BackgroundImageFix" result="shape"/>
<feColorMatrix in="SourceAlpha" type="matrix" values="0 0 0 0 0 0 0 0 0 0 0 0 0 0 0 0 0 0 127 0" result="hardAlpha"/>
<feOffset dy="7.5"/>
<feGaussianBlur stdDeviation="3.75"/>
<feComposite in2="hardAlpha" operator="arithmetic" k2="-1" k3="1"/>
<feColorMatrix type="matrix" values="0 0 0 0 1 0 0 0 0 1 0 0 0 0 1 0 0 0 0.1 0"/>
<feBlend mode="normal" in2="shape" result="effect1_innerShadow_605_4545"/>
</filter>
<filter id="filter2_bi_605_4545" x="18.956" y="-22.5" width="93.5447" height="93.5457" filterUnits="userSpaceOnUse" color-interpolation-filters="sRGB">
<feFlood flood-opacity="0" result="BackgroundImageFix"/>
<feGaussianBlur in="BackgroundImageFix" stdDeviation="11.25"/>
<feComposite in2="SourceAlpha" operator="in" result="effect1_backgroundBlur_605_4545"/>
<feBlend mode="normal" in="SourceGraphic" in2="effect1_backgroundBlur_605_4545" result="shape"/>
<feColorMatrix in="SourceAlpha" type="matrix" values="0 0 0 0 0 0 0 0 0 0 0 0 0 0 0 0 0 0 127 0" result="hardAlpha"/>
<feOffset dy="7.5"/>
<feGaussianBlur stdDeviation="5.625"/>
<feComposite in2="hardAlpha" operator="arithmetic" k2="-1" k3="1"/>
<feColorMatrix type="matrix" values="0 0 0 0 1 0 0 0 0 1 0 0 0 0 1 0 0 0 0.15 0"/>
<feBlend mode="normal" in2="shape" result="effect2_innerShadow_605_4545"/>
</filter>
<filter id="filter3_i_605_4545" x="30.8093" y="37.1475" width="22.1448" height="29.6487" filterUnits="userSpaceOnUse" color-interpolation-filters="sRGB">
<feFlood flood-opacity="0" result="BackgroundImageFix"/>
<feBlend mode="normal" in="SourceGraphic" in2="BackgroundImageFix" result="shape"/>
<feColorMatrix in="SourceAlpha" type="matrix" values="0 0 0 0 0 0 0 0 0 0 0 0 0 0 0 0 0 0 127 0" result="hardAlpha"/>
<feOffset dy="7.5"/>
<feGaussianBlur stdDeviation="3.75"/>
<feComposite in2="hardAlpha" operator="arithmetic" k2="-1" k3="1"/>
<feColorMatrix type="matrix" values="0 0 0 0 1 0 0 0 0 1 0 0 0 0 1 0 0 0 0.1 0"/>
<feBlend mode="normal" in2="shape" result="effect1_innerShadow_605_4545"/>
</filter>
<linearGradient id="paint0_linear_605_4545" x1="0" y1="0.637207" x2="100.398" y2="24.8016" gradientUnits="userSpaceOnUse">
<stop stop-color="#FFD580"/>
<stop offset="1" stop-color="#FF384C"/>
</linearGradient>
<linearGradient id="paint1_linear_605_4545" x1="41.4561" y1="29.7969" x2="63.6332" y2="35.4546" gradientUnits="userSpaceOnUse">
<stop stop-color="#FFA39E"/>
<stop offset="1" stop-color="#F01E33"/>
</linearGradient>
<linearGradient id="paint2_linear_605_4545" x1="42.9731" y1="2.20662" x2="90.0007" y2="2.20662" gradientUnits="userSpaceOnUse">
<stop stop-color="#FFD580"/>
<stop offset="1" stop-color="#E65A53"/>
</linearGradient>
<clipPath id="clip0_605_4545">
<rect width="90" height="90" fill="white"/>
</clipPath>
</defs>
</svg>
