<svg width="80" height="90" viewBox="0 0 80 90" fill="none" xmlns="http://www.w3.org/2000/svg">
<g filter="url(#filter0_bi_1804_143)">
<path d="M74.2178 35.8803L16.3905 1.47686C9.4166 -2.67215 0.625 2.41344 0.625 10.5966V79.4034C0.625 87.5866 9.4166 92.6722 16.3905 88.5232L74.2178 54.1197C81.0941 50.0288 81.0941 39.9713 74.2178 35.8803Z" fill="url(#paint0_linear_1804_143)"/>
<path d="M16.1029 1.96028L73.9302 36.3637C80.44 40.2366 80.44 49.7634 73.9302 53.6363L16.1029 88.0397C9.51355 91.96 1.1875 87.1615 1.1875 79.4035V10.5966C1.1875 2.83851 9.51355 -1.95996 16.1029 1.96028Z" stroke="url(#paint1_linear_1804_143)" stroke-width="1.125"/>
</g>
<defs>
<filter id="filter0_bi_1804_143" x="-21.875" y="-22.5" width="123.75" height="135" filterUnits="userSpaceOnUse" color-interpolation-filters="sRGB">
<feFlood flood-opacity="0" result="BackgroundImageFix"/>
<feGaussianBlur in="BackgroundImageFix" stdDeviation="11.25"/>
<feComposite in2="SourceAlpha" operator="in" result="effect1_backgroundBlur_1804_143"/>
<feBlend mode="normal" in="SourceGraphic" in2="effect1_backgroundBlur_1804_143" result="shape"/>
<feColorMatrix in="SourceAlpha" type="matrix" values="0 0 0 0 0 0 0 0 0 0 0 0 0 0 0 0 0 0 127 0" result="hardAlpha"/>
<feOffset dy="7.5"/>
<feGaussianBlur stdDeviation="5.625"/>
<feComposite in2="hardAlpha" operator="arithmetic" k2="-1" k3="1"/>
<feColorMatrix type="matrix" values="0 0 0 0 1 0 0 0 0 1 0 0 0 0 1 0 0 0 0.15 0"/>
<feBlend mode="normal" in2="shape" result="effect2_innerShadow_1804_143"/>
</filter>
<linearGradient id="paint0_linear_1804_143" x1="1.28491" y1="90" x2="131.269" y2="71.423" gradientUnits="userSpaceOnUse">
<stop offset="0.441076" stop-color="#313333"/>
<stop offset="1" stop-color="#FF8963" stop-opacity="0.2"/>
</linearGradient>
<linearGradient id="paint1_linear_1804_143" x1="1.28491" y1="90" x2="131.269" y2="71.423" gradientUnits="userSpaceOnUse">
<stop offset="0.494792" stop-color="#313333"/>
<stop offset="1" stop-color="#FF8963" stop-opacity="0.2"/>
</linearGradient>
</defs>
</svg>
